<svg width="246" height="111" viewBox="0 0 246 111" fill="none" xmlns="http://www.w3.org/2000/svg">
<path d="M97.125 0H13.875C6.24375 0 0 6.24375 0 13.875V31.7182C0 31.7182 17.8248 42.0783 18.9533 42.7257C20.387 43.5583 22.163 43.5444 23.5968 42.7257C24.7993 42.0459 60.6893 21.4138 61.2257 21.1039C61.7509 20.8028 62.3442 20.6405 62.9495 20.6324C63.5548 20.6243 64.1522 20.7707 64.6852 21.0576C65.4437 21.5063 67.488 22.6671 68.5703 23.2776C69.6432 23.8974 69.5924 25.5994 68.6304 26.1544L23.7124 52.0081C22.1121 52.9331 20.5211 52.9516 18.8654 52.0174C16.0858 50.4449 4.61575 43.7664 0 41.0793V50.4218L18.9533 61.4292C20.387 62.2617 22.163 62.2479 23.5968 61.4292C24.7993 60.7494 60.6893 40.1126 61.2257 39.8027C61.7517 39.5031 62.3454 39.3424 62.9507 39.3359C63.556 39.3294 64.153 39.4774 64.6852 39.7657C65.4437 40.2097 67.488 41.3706 68.5703 41.9858C69.6432 42.6009 69.5924 44.2982 68.6304 44.8532C67.6684 45.4129 25.6734 69.5785 23.7124 70.707C22.1121 71.632 20.5211 71.6551 18.8654 70.7162C16.0858 69.1484 4.61575 62.4652 0 59.7827V69.1253L18.9533 80.1328C20.387 80.9652 22.163 80.9514 23.5968 80.1328C24.7993 79.4529 60.6893 58.8161 61.2257 58.5062C61.7513 58.2058 62.3448 58.0444 62.9501 58.0371C63.5554 58.0298 64.1526 58.177 64.6852 58.4646C65.4437 58.9132 67.488 60.0741 68.5703 60.6846C69.6432 61.2998 69.5924 63.0064 68.6304 63.5614L23.7124 89.4151C22.1121 90.3355 20.5211 90.3586 18.8654 89.4197C16.0858 87.8473 4.61575 81.1687 0 78.4862V97.125C0 104.756 6.24375 111 13.875 111H97.125C104.756 111 111 104.756 111 97.125V13.875C111 6.24375 104.756 0 97.125 0Z" fill="black"/>
<path d="M132.932 45.0341V41.9091H154.75V45.0341H145.602V71H142.08V45.0341H132.932ZM183.521 56.4545C183.521 59.5227 182.967 62.1742 181.859 64.4091C180.751 66.6439 179.232 68.3674 177.3 69.5795C175.368 70.7917 173.161 71.3977 170.68 71.3977C168.199 71.3977 165.993 70.7917 164.061 69.5795C162.129 68.3674 160.609 66.6439 159.501 64.4091C158.393 62.1742 157.839 59.5227 157.839 56.4545C157.839 53.3864 158.393 50.7348 159.501 48.5C160.609 46.2652 162.129 44.5417 164.061 43.3295C165.993 42.1174 168.199 41.5114 170.68 41.5114C173.161 41.5114 175.368 42.1174 177.3 43.3295C179.232 44.5417 180.751 46.2652 181.859 48.5C182.967 50.7348 183.521 53.3864 183.521 56.4545ZM180.112 56.4545C180.112 53.9356 179.691 51.8097 178.848 50.0767C178.015 48.3438 176.883 47.0322 175.453 46.142C174.033 45.2519 172.442 44.8068 170.68 44.8068C168.919 44.8068 167.323 45.2519 165.893 46.142C164.473 47.0322 163.341 48.3438 162.499 50.0767C161.665 51.8097 161.249 53.9356 161.249 56.4545C161.249 58.9735 161.665 61.0994 162.499 62.8324C163.341 64.5653 164.473 65.8769 165.893 66.767C167.323 67.6572 168.919 68.1023 170.68 68.1023C172.442 68.1023 174.033 67.6572 175.453 66.767C176.883 65.8769 178.015 64.5653 178.848 62.8324C179.691 61.0994 180.112 58.9735 180.112 56.4545ZM198.422 71H189.445V41.9091H198.82C201.642 41.9091 204.056 42.4915 206.064 43.6562C208.071 44.8116 209.61 46.4735 210.68 48.642C211.75 50.8011 212.286 53.3864 212.286 56.3977C212.286 59.428 211.746 62.0369 210.666 64.2244C209.587 66.4025 208.015 68.0786 205.95 69.2528C203.886 70.4176 201.376 71 198.422 71ZM192.967 67.875H198.195C200.6 67.875 202.593 67.411 204.175 66.483C205.756 65.5549 206.935 64.2339 207.712 62.5199C208.488 60.8059 208.876 58.7652 208.876 56.3977C208.876 54.0492 208.493 52.0275 207.726 50.3324C206.959 48.6278 205.813 47.321 204.288 46.4119C202.764 45.4934 200.865 45.0341 198.592 45.0341H192.967V67.875ZM242.74 56.4545C242.74 59.5227 242.186 62.1742 241.078 64.4091C239.97 66.6439 238.45 68.3674 236.518 69.5795C234.587 70.7917 232.38 71.3977 229.899 71.3977C227.418 71.3977 225.212 70.7917 223.28 69.5795C221.348 68.3674 219.828 66.6439 218.72 64.4091C217.612 62.1742 217.058 59.5227 217.058 56.4545C217.058 53.3864 217.612 50.7348 218.72 48.5C219.828 46.2652 221.348 44.5417 223.28 43.3295C225.212 42.1174 227.418 41.5114 229.899 41.5114C232.38 41.5114 234.587 42.1174 236.518 43.3295C238.45 44.5417 239.97 46.2652 241.078 48.5C242.186 50.7348 242.74 53.3864 242.74 56.4545ZM239.331 56.4545C239.331 53.9356 238.91 51.8097 238.067 50.0767C237.233 48.3438 236.102 47.0322 234.672 46.142C233.251 45.2519 231.661 44.8068 229.899 44.8068C228.138 44.8068 226.542 45.2519 225.112 46.142C223.692 47.0322 222.56 48.3438 221.717 50.0767C220.884 51.8097 220.467 53.9356 220.467 56.4545C220.467 58.9735 220.884 61.0994 221.717 62.8324C222.56 64.5653 223.692 65.8769 225.112 66.767C226.542 67.6572 228.138 68.1023 229.899 68.1023C231.661 68.1023 233.251 67.6572 234.672 66.767C236.102 65.8769 237.233 64.5653 238.067 62.8324C238.91 61.0994 239.331 58.9735 239.331 56.4545Z" fill="black"/>
</svg>
